<svg width="37" height="28" viewBox="0 0 37 28" fill="none" xmlns="http://www.w3.org/2000/svg">
<path fill-rule="evenodd" clip-rule="evenodd" d="M31.648 2.91228C32.3142 2.24605 32.3142 1.16589 31.648 0.499662C30.9819 -0.166554 29.9016 -0.166554 29.2354 0.499662L21.9665 7.76868C20.9506 7.16837 19.7654 6.82388 18.4999 6.82388C14.7312 6.82388 11.6761 9.87903 11.6761 13.6478C11.6761 14.9133 12.0206 16.0984 12.6209 17.1143L5.35185 24.3833C4.68563 25.0494 4.68563 26.1297 5.35185 26.7958C6.01808 27.462 7.09823 27.462 7.76446 26.7958L15.0335 19.5269C16.0493 20.1272 17.2345 20.4716 18.4999 20.4716C22.2686 20.4716 25.3238 17.4164 25.3238 13.6478C25.3238 12.3823 24.9794 11.1971 24.3791 10.1813L31.648 2.91228ZM19.3836 10.3513C19.1018 10.2761 18.8057 10.2358 18.4999 10.2358C16.6155 10.2358 15.088 11.7633 15.088 13.6478C15.088 13.9535 15.1283 14.2496 15.2035 14.5315L19.3836 10.3513ZM17.6163 16.9442L21.7964 12.7641C21.8716 13.0459 21.9119 13.3421 21.9119 13.6478C21.9119 15.5322 20.3844 17.0597 18.4999 17.0597C18.1942 17.0597 17.8981 17.0194 17.6163 16.9442ZM24.9231 1.40009C22.9844 0.546747 20.8329 0 18.4999 0C13.6337 0 9.55583 2.37918 6.55495 4.95746C3.54316 7.5451 1.45316 10.4706 0.525622 11.8903C-0.175207 12.9628 -0.175207 14.3327 0.525622 15.4053C1.30847 16.6035 2.91942 18.8743 5.21375 21.1095L7.62654 18.6968C5.62925 16.7576 4.18931 14.7619 3.45332 13.6478C4.32402 12.3297 6.17997 9.7779 8.77842 7.5454C11.4611 5.24048 14.7737 3.41194 18.4999 3.41194C19.8168 3.41194 21.0819 3.64028 22.286 4.03731L24.9231 1.40009ZM18.4999 23.8836C17.1833 23.8836 15.9181 23.6552 14.7141 23.2582L12.0769 25.8954C14.0156 26.7488 16.1672 27.2955 18.4999 27.2955C23.3662 27.2955 27.4442 24.9164 30.4452 22.3381C33.4569 19.7504 35.5469 16.825 36.4744 15.4053C37.1752 14.3327 37.1752 12.9628 36.4744 11.8903C35.6915 10.692 34.0806 8.42113 31.7862 6.18604L29.3735 8.59882C31.3708 10.5379 32.8108 12.5336 33.5468 13.6478C32.6761 14.9658 30.8201 17.5176 28.2216 19.7502C25.539 22.0551 22.2263 23.8836 18.4999 23.8836Z" fill="#635454ff"/>
</svg>