<svg width="37" height="28" viewBox="0 0 37 28" fill="none" xmlns="http://www.w3.org/2000/svg">
<path fill-rule="evenodd" clip-rule="evenodd" d="M8.77842 19.7502C6.17997 17.5176 4.32402 14.9658 3.45332 13.6478C4.32402 12.3297 6.17997 9.77791 8.77842 7.5454C11.4611 5.24049 14.7737 3.41194 18.4999 3.41194C22.2263 3.41194 25.539 5.24049 28.2216 7.5454C30.8201 9.77791 32.6761 12.3297 33.5468 13.6478C32.6761 14.9658 30.8201 17.5176 28.2216 19.7502C25.539 22.0551 22.2263 23.8836 18.4999 23.8836C14.7737 23.8836 11.4611 22.0551 8.77842 19.7502ZM18.4999 0C13.6337 0 9.55583 2.37918 6.55495 4.95746C3.54316 7.5451 1.45316 10.4706 0.525622 11.8903C-0.175207 12.9628 -0.175207 14.3327 0.525622 15.4053C1.45316 16.825 3.54316 19.7504 6.55495 22.3381C9.55583 24.9164 13.6337 27.2955 18.4999 27.2955C23.3662 27.2955 27.4442 24.9164 30.4452 22.3381C33.4569 19.7504 35.5469 16.825 36.4744 15.4053C37.1752 14.3327 37.1752 12.9628 36.4744 11.8903C35.5469 10.4706 33.4569 7.5451 30.4452 4.95746C27.4442 2.37918 23.3662 0 18.4999 0ZM15.088 13.6478C15.088 11.7633 16.6157 10.2358 18.4999 10.2358C20.3844 10.2358 21.9119 11.7633 21.9119 13.6478C21.9119 15.5322 20.3844 17.0597 18.4999 17.0597C16.6157 17.0597 15.088 15.5322 15.088 13.6478ZM18.4999 6.82388C14.7313 6.82388 11.6761 9.87903 11.6761 13.6478C11.6761 17.4164 14.7313 20.4716 18.4999 20.4716C22.2688 20.4716 25.3238 17.4164 25.3238 13.6478C25.3238 9.87903 22.2688 6.82388 18.4999 6.82388Z" fill="#635454ff"/>
</svg>