<svg width="30" height="30" viewBox="0 0 30 30" fill="none" xmlns="http://www.w3.org/2000/svg">
<path d="M15 6C11.2723 6 8.25 9.02231 8.25 12.75C8.25 14.2178 8.73122 15.5648 9.53109 16.6678C9.54544 16.6943 9.54769 16.7238 9.564 16.7491L14.064 23.4991C14.2727 23.8121 14.6243 24 15 24C15.3757 24 15.7273 23.8121 15.936 23.4991L20.436 16.7491C20.4526 16.7238 20.4546 16.6943 20.4689 16.6678C21.2688 15.5648 21.75 14.2178 21.75 12.75C21.75 9.02231 18.7277 6 15 6ZM15 15C13.7574 15 12.75 13.9926 12.75 12.75C12.75 11.5074 13.7574 10.5 15 10.5C16.2426 10.5 17.25 11.5074 17.25 12.75C17.25 13.9926 16.2426 15 15 15Z" fill="white"/>
</svg>